<?xml version="1.0" encoding="utf-8"?>
<svg width="815" height="815" viewBox="0 0 815 815" fill="none" xmlns="http://www.w3.org/2000/svg">
  <defs>
    <linearGradient id="gradient_1" gradientUnits="userSpaceOnUse" x1="0" y1="0" x2="815" y2="815">
      <stop offset="0" stop-color="#F8FAFC" />
      <stop offset="1" stop-color="#E5E7EB" />
    </linearGradient>
    <clipPath id="clip_path_2">
      <rect width="586" height="126" />
    </clipPath>
  </defs>
  <g>
    <path d="M783 0C800.676 0 815 14.3245 815 32L815 783C815 800.676 800.676 815 783 815L32 815C14.3245 815 0 800.676 0 783L0 32C0 14.3245 14.3245 0 32 0L783 0Z" fill="url(#gradient_1)" />
    <g transform="translate(169 148)">
      <path d="M182.058 56.8759C247.794 122.59 238.501 238.425 238.501 238.425C238.501 238.425 122.629 247.716 56.8944 182.001C-8.84071 116.286 0.451394 0.451408 0.451394 0.451408C0.451394 0.451408 116.323 -8.83915 182.058 56.8759C182.058 56.8759 182.058 56.8759 182.058 56.8759Z" fill="#BFDBFE" fill-rule="evenodd" transform="translate(0 98.123)" />
      <path d="M56.8932 56.877C-8.84187 122.591 0.451538 238.426 0.451538 238.426C0.451538 238.426 116.323 247.717 182.058 182.002C247.793 116.287 238.499 0.451248 238.499 0.451248C238.499 0.451248 122.63 -8.83803 56.8932 56.877C56.8932 56.877 56.8932 56.877 56.8932 56.877Z" fill="#2563EB" fill-rule="evenodd" transform="translate(238.049 98.122)" />
      <path d="M177.007 168.274C177.007 261.21 88.5037 336.548 88.5037 336.548C88.5037 336.548 0 261.21 0 168.274C0 75.3382 88.5037 0 88.5037 0C88.5037 0 177.007 75.3395 177.007 168.274C177.007 168.274 177.007 168.274 177.007 168.274Z" fill="#60A5FA" fill-rule="evenodd" transform="translate(149.997 0)" />
    </g>
    <path d="M37.375 78.1875Q21.9375 73.75 14.9063 67.2813Q7.875 60.8125 7.875 51.3125Q7.875 40.5625 16.4688 33.5313Q25.0625 26.5 38.8125 26.5Q48.1875 26.5 55.5313 30.125Q62.875 33.75 66.9063 40.125Q70.9375 46.5 70.9375 54.0625L58.875 54.0625Q58.875 45.7832 53.625 41.0479Q48.375 36.3125 38.8125 36.3125Q29.9375 36.3125 24.9688 40.2261Q20 44.1397 20 51.0889Q20 56.6621 24.7188 60.5127Q29.4375 64.3633 40.7813 67.5566Q52.125 70.75 58.5313 74.5938Q64.9375 78.4375 68.0313 83.5625Q71.125 88.6875 71.125 95.625Q71.125 106.688 62.5 113.344Q53.875 120 39.4375 120Q30.0625 120 21.9375 116.406Q13.8125 112.813 9.40625 106.563Q5 100.313 5 92.375L17.0625 92.375Q17.0625 100.625 23.1563 105.406Q29.25 110.188 39.4375 110.188Q48.9375 110.188 54 106.313Q59.0625 102.438 59.0625 95.75Q59.0625 89.0625 54.375 85.4063Q49.6875 81.75 37.375 78.1875ZM128.438 118.75Q127.437 116.75 126.813 111.625Q118.75 120 107.563 120Q97.5625 120 91.1563 114.344Q84.75 108.688 84.75 100Q84.75 89.4375 92.7813 83.5938Q100.813 77.75 115.375 77.75L126.625 77.75L126.625 72.4375Q126.625 66.375 123 62.7813Q119.375 59.1875 112.313 59.1875Q106.125 59.1875 101.938 62.3125Q97.75 65.4375 97.75 69.875L86.125 69.875Q86.125 64.8125 89.7188 60.0938Q93.3125 55.375 99.4688 52.625Q105.625 49.875 113 49.875Q124.688 49.875 131.313 55.7188Q137.938 61.5625 138.188 71.8125L138.188 102.938Q138.188 112.25 140.563 117.75L140.563 118.75L128.438 118.75ZM109.25 109.938Q114.688 109.938 119.563 107.125Q124.438 104.313 126.625 99.8125L126.625 85.9375L117.563 85.9375Q96.3125 85.9375 96.3125 98.375Q96.3125 103.813 99.9375 106.875Q103.563 109.938 109.25 109.938ZM174 34.75L174 51.125L186.625 51.125L186.625 60.0625L174 60.0625L174 102.053Q174 106.12 175.688 108.154Q177.375 110.188 181.438 110.188Q183.438 110.188 186.938 109.438L186.938 118.758Q182.375 120 178.063 120Q170.313 120 166.375 115.313Q162.438 110.625 162.438 102L162.438 60.0625L150.125 60.0625L150.125 51.125L162.438 51.125L162.438 34.75L174 34.75ZM197.813 84.3125Q197.813 74.375 201.719 66.4375Q205.625 58.5 212.594 54.1875Q219.563 49.875 228.5 49.875Q242.313 49.875 250.844 59.4375Q259.375 69 259.375 84.875L259.375 85.6875Q259.375 95.5625 255.594 103.406Q251.813 111.25 244.781 115.625Q237.75 120 228.625 120Q214.875 120 206.344 110.438Q197.813 100.875 197.813 85.125L197.813 84.3125ZM209.438 85.6875Q209.438 96.9375 214.656 103.75Q219.875 110.563 228.625 110.563Q237.438 110.563 242.625 103.656Q247.813 96.75 247.813 84.3125Q247.813 73.1875 242.531 66.2813Q237.25 59.375 228.5 59.375Q219.938 59.375 214.688 66.1875Q209.438 73 209.438 85.6875ZM308.563 61.5Q305.938 61.0625 302.875 61.0625Q291.5 61.0625 287.438 70.75L287.438 118.75L275.875 118.75L275.875 51.125L287.125 51.125L287.313 58.9375Q293 49.875 303.438 49.875Q306.813 49.875 308.563 50.75L308.563 61.5ZM333.75 118.75L322.188 118.75L322.188 51.125L333.75 51.125L333.75 118.75ZM321.25 33.1875Q321.25 30.375 322.969 28.4375Q324.688 26.5 328.063 26.5Q331.438 26.5 333.188 28.4375Q334.938 30.375 334.938 33.1875Q334.938 36 333.188 37.875Q331.438 39.75 328.063 39.75Q324.688 39.75 322.969 37.875Q321.25 36 321.25 33.1875Z" transform="translate(225 529)" fill="#374151" clip-path="url(#clip_path_2)" />
  </g>
</svg>